 MESH "Malha" dimension 2 ElemType Triangle Nnode 3
 Coordinates
           1      1.0000000          0.0000000    
           2      1.0000000          1.0000000    
           3      1.5000000         0.50000000    
           4      2.0000000          0.0000000    
           5      2.0000000          1.0000000    
           6      2.5000000         0.50000000    
           7      3.0000000          0.0000000    
           8      3.0000000          1.0000000    
           9      3.5000000         0.50000000    
          10      4.0000000          0.0000000    
          11      4.0000000          1.0000000    
          12      4.5000000         0.50000000    
          13      5.0000000          0.0000000    
          14      5.0000000          1.0000000    
          15      5.5000000         0.50000000    
          16      6.0000000          0.0000000    
          17      6.0000000          1.0000000    
          18      6.5000000         0.50000000    
          19      7.0000000          0.0000000    
          20      7.0000000          1.0000000    
          21      7.5000000         0.50000000    
          22      8.0000000          0.0000000    
          23      8.0000000          1.0000000    
          24      8.5000000         0.50000000    
          25      9.0000000          0.0000000    
          26      9.0000000          1.0000000    
          27      9.5000000         0.50000000    
          28      10.000000          0.0000000    
          29      10.000000          1.0000000    
 end coordinates
 Elements
         1         2         1         3         1
         2         1         4         3         1
         3         4         5         3         1
         4         5         2         3         1
         5         5         4         6         1
         6         4         7         6         1
         7         7         8         6         1
         8         8         5         6         1
         9         8         7         9         1
        10         7        10         9         1
        11        10        11         9         1
        12        11         8         9         1
        13        11        10        12         1
        14        10        13        12         1
        15        13        14        12         1
        16        14        11        12         1
        17        14        13        15         1
        18        13        16        15         1
        19        16        17        15         1
        20        17        14        15         1
        21        17        16        18         1
        22        16        19        18         1
        23        19        20        18         1
        24        20        17        18         1
        25        20        19        21         1
        26        19        22        21         1
        27        22        23        21         1
        28        23        20        21         1
        29        23        22        24         1
        30        22        25        24         1
        31        25        26        24         1
        32        26        23        24         1
        33        26        25        27         1
        34        25        28        27         1
        35        28        29        27         1
        36        29        26        27         1
 end elements
